<svg xmlns="http://www.w3.org/2000/svg"  viewBox="0 0 64 64" width="64px" height="64px"><path fill="#ed7899" d="M40 26.048L61 26.048 32 58.048 3 26.077 16.715 6.029 48 6 57 16.952 50 26.048 43 16 21 16 14.846 27 32 46.048 43 34.048 33 34.048z"/><path fill="#f283a5" d="M49 5L15.715 5.029 12.332 10 45 10 54 21 58 16z"/><path fill="#e0678f" d="M61 26.048L54.782 26.048 32 51.452 5.748 22.06 3 26.077 32 58.048z"/><path fill="none" stroke="#8d6c9f" stroke-linecap="round" stroke-linejoin="round" stroke-miterlimit="10" stroke-width="2" d="M40 26L62 26 32 59 2 25.872 16.187 5 48 5 58 16 50.621 25.842 43 16 21 16 14.846 27 32 46 43 34 33 34z"/><path fill="#8d6c9f" d="M25 8c-.552 0-1 .448-1 1v2c0 .552.448 1 1 1s1-.448 1-1V9C26 8.448 25.552 8 25 8zM20 8c-.552 0-1 .448-1 1v2c0 .552.448 1 1 1s1-.448 1-1V9C21 8.448 20.552 8 20 8zM15 8c-.552 0-1 .448-1 1v2c0 .552.448 1 1 1s1-.448 1-1V9C16 8.448 15.552 8 15 8zM30 8c-.552 0-1 .448-1 1v2c0 .552.448 1 1 1s1-.448 1-1V9C31 8.448 30.552 8 30 8zM35 8c-.552 0-1 .448-1 1v2c0 .552.448 1 1 1s1-.448 1-1V9C36 8.448 35.552 8 35 8zM45 8c-.552 0-1 .448-1 1v2c0 .552.448 1 1 1s1-.448 1-1V9C46 8.448 45.552 8 45 8zM50 8c-.552 0-1 .448-1 1v2c0 .552.448 1 1 1s1-.448 1-1V9C51 8.448 50.552 8 50 8zM40 8c-.552 0-1 .448-1 1v2c0 .552.448 1 1 1s1-.448 1-1V9C41 8.448 40.552 8 40 8z"/></svg>